<svg xmlns="http://www.w3.org/2000/svg" version="1.1" width="176.8mm" height="70mm" viewBox="0 0 176.8 70">
<path stroke="red" stroke-width="0.1" fill="none" d="M10,10 V60 H30 V40 A 6.35 6.35 0 0 1 30 27.3 H44.0 A 6.35 6.35 0 0 1 44.0 40 V60 H64.0 V40 A 6.35 6.35 0 0 1 64.0 27.3 H78.05 A 6.35 6.35 0 0 1 78.05 40 V60 H98.05 V40 A 6.35 6.35 0 0 1 98.05 27.3 H112.14999999999999 A 6.35 6.35 0 0 1 112.14999999999999 40 V60 H132.14999999999998 V40 A 6.35 6.35 0 0 1 132.14999999999998 27.3 H146.29999999999998 A 6.35 6.35 0 0 1 146.29999999999998 40 V60 H166.29999999999998 V10 H10"/>
<text x="28" y="25" font-size="3" fill="black">14.0</text><text x="61.0" y="25" font-size="3" fill="black">14.05</text><text x="96.05" y="25" font-size="3" fill="black">14.1</text><text x="129.14999999999998" y="25" font-size="3" fill="black">14.15</text>
</svg>