<?xml version="1.0" encoding="utf-8"?>
<!-- Generator: Adobe Illustrator 27.1.1, SVG Export Plug-In . SVG Version: 6.00 Build 0)  -->
<svg version="1.1" id="レイヤー_1" xmlns="http://www.w3.org/2000/svg" xmlns:xlink="http://www.w3.org/1999/xlink" x="0px"
	 y="0px" viewBox="0 0 584.3 256.8" style="enable-background:new 0 0 584.3 256.8;" xml:space="preserve">
<style type="text/css">
	.st0{fill:none;stroke:#FF0000;stroke-width:0.2835;stroke-miterlimit:11.3386;}
	.st1{font-family:'ArialMT';}
	.st2{font-size:10.1476px;}
	.st3{font-family:'KozGoPr6N-Regular-83pv-RKSJ-H';}
	.st4{font-size:12px;}
	.st5{fill:none;stroke:#000000;stroke-width:2;stroke-miterlimit:11.3386;}
	.st6{fill:none;stroke:#000000;stroke-width:0.2835;stroke-miterlimit:11.3386;}
	.st7{stroke:#000000;stroke-width:2;stroke-miterlimit:11.3386;}
</style>
<path class="st0" d="M28.3,28.3v169.1H96v-67.7c-11.9,0-21.5-9.6-21.5-21.5S84.1,86.9,96,86.9h47.4c11.9,0,21.5,9.6,21.5,21.5
	s-9.6,21.5-21.5,21.5v67.7H211v-67.7c-11.9,0-21.5-9.6-21.5-21.5s9.6-21.5,21.5-21.5h47.5c11.9,0,21.5,9.6,21.5,21.5
	s-9.6,21.5-21.5,21.5v67.7h67.7v-67.7c-11.9,0-21.5-9.6-21.5-21.5s9.6-21.5,21.5-21.5h47.7c11.9,0,21.5,9.6,21.5,21.5
	s-9.6,21.5-21.5,21.5v67.7h67.7v-67.7c-11.9,0-21.5-9.6-21.5-21.5s9.6-21.5,21.5-21.5h47.9c11.9,0,21.5,9.6,21.5,21.5
	s-9.6,21.5-21.5,21.5l0,0v67.7H557V28.3H28.3"/>
<text transform="matrix(1 0 0 1 89.231 79.0846)" class="st1 st2">14.0</text>
<text transform="matrix(1 0 0 1 200.8545 79.0846)" class="st1 st2">14.05</text>
<text transform="matrix(1 0 0 1 319.4111 79.0846)" class="st1 st2">14.1</text>
<text transform="matrix(1 0 0 1 431.374 79.0846)" class="st1 st2">14.15</text>
<text transform="matrix(1 0 0 1 51.4282 179.3854)" class="st3 st4">gap</text>
<text transform="matrix(1 0 0 1 119.856 71.7887)" class="st3 st4">shank-diameter</text>
<text transform="matrix(1 0 0 1 89.231 214.4196)" class="st3 st4">start-width</text>
<text transform="matrix(1 0 0 1 191.8451 214.4196)" class="st3 st4">start-width+pitch</text>
<text transform="matrix(1 0 0 1 302.9019 214.5631)" class="st3 st4">start-width+pitchx2</text>
<text transform="matrix(1 0 0 1 418.5658 216.0035)" class="st3 st4">start-width+pitchx3</text>
<line class="st5" x1="96" y1="197.5" x2="28.3" y2="197.5"/>
<line class="st6" x1="47.3" y1="184.2" x2="40.8" y2="197.5"/>
<line class="st7" x1="96" y1="129.8" x2="96" y2="86.9"/>
<line class="st6" x1="148.2" y1="75.9" x2="96" y2="112.9"/>
<line class="st5" x1="143.4" y1="180.7" x2="96" y2="180.7"/>
<line class="st6" x1="120.3" y1="181.6" x2="117.1" y2="201.9"/>
<line class="st5" x1="258.6" y1="180.7" x2="211.3" y2="180.7"/>
<line class="st6" x1="235.6" y1="181.6" x2="235" y2="201.9"/>
</svg>
